<?xml version="1.0" encoding="UTF-8" standalone="no"?>
<!-- Created with Inkscape (http://www.inkscape.org/) -->
<svg id="svg3910" xmlns:rdf="http://www.w3.org/1999/02/22-rdf-syntax-ns#" xmlns="http://www.w3.org/2000/svg" height="312" width="1227" version="1.1" xmlns:cc="http://creativecommons.org/ns#" xmlns:dc="http://purl.org/dc/elements/1.1/" viewBox="0 0 1227 312.00001">
 <defs id="defs3912">
  <clipPath id="clipPath4400" clipPathUnits="userSpaceOnUse">
   <path id="path4402" d="m0 301.12h1034.1v-301.12h-1034.1v301.12z"/>
  </clipPath>
 </defs>
 <metadata id="metadata3915">
  <rdf:RDF>
   <cc:Work rdf:about="">
    <dc:format>image/svg+xml</dc:format>
    <dc:type rdf:resource="http://purl.org/dc/dcmitype/StillImage"/>
    <dc:title/>
   </cc:Work>
  </rdf:RDF>
 </metadata>
 <g id="layer1" transform="translate(-165.26 -176.56)">
  <g id="g4380" transform="matrix(1.25 0 0 -1.25 132.46 520.52)">
   <path id="path4382" d="m982.54 116.34h-931v9.079h931v-9.079z" fill="#063"/>
   <g id="g4384" transform="translate(112.3 248.34)">
    <path id="path4386" d="m0 0h-20.805v-84.224h62.669v18.079h-41.864v66.145z" fill="#036"/>
   </g>
   <g id="g4388" transform="translate(200.07 194.83)">
    <path id="path4390" d="m0 0 12.754 32.949 12.136-32.949h-24.89zm56.852-30.713-31.962 84.224h-24.394l-32.57-84.224h21.055l5.81 15.484h35.305l5.696-15.484h21.06z" fill="#036"/>
   </g>
   <g id="g4392" transform="translate(368.66 182.2)">
    <path id="path4394" d="m0 0h-47.805v16.11h38.766v17.462h-38.766v14.491h47.805v18.082h-67.626v-84.224h67.626v18.079z" fill="#036"/>
   </g>
   <g id="g4396">
    <g id="g4398" clip-path="url(#clipPath4400)">
     <g id="g4404" transform="translate(425.65 162.75)">
      <path id="path4406" d="m0 0c25.528 0 39.393 17.347 39.393 37.538v48.053h-20.811v-46.698c0-11.883-6.19-19.564-18.582-19.564-12.01 0-18.206 7.43-18.206 19.564v46.698h-20.805v-48.053c0-21.803 13.871-37.538 39.011-37.538" fill="#036"/>
     </g>
     <g id="g4408" transform="translate(508.29 230.26)">
      <path id="path4410" d="m0 0h18.835c6.807 0 11.14-3.963 11.14-10.407 0-6.19-4.333-10.401-11.14-10.401h-18.835v20.808zm48.931-67.382c5.695 0 10.764 1.485 14.242 3.222l-1.984 16.348c-2.607-1.116-6.195-1.606-8.918-1.606-7.806 0-15.23 7.427-22.793 14.368 12.762 2.598 22.048 12.137 22.048 25.391 0 19.694-15.98 27.741-32.328 27.741h-40.009v-84.224h20.811v30.344h4.46c11.023-7.554 25.139-31.584 44.471-31.584" fill="#036"/>
     </g>
     <g id="g4412" transform="translate(621.28 182.45)">
      <path id="path4414" d="m0 0c-13.244 0-22.907 10.286-22.907 23.661 0 13.626 9.663 23.778 22.907 23.778 13.627 0 22.914-10.152 22.914-23.778 0-13.375-9.287-23.661-22.914-23.661m43.354 23.661c0 24.892-18.582 43.473-43.475 43.473-24.644 0-43.226-18.581-43.226-43.473 0-24.65 18.582-43.231 43.226-43.231 24.893 0 43.475 18.581 43.475 43.231" fill="#036"/>
     </g>
     <g id="g4416" transform="translate(721.5 204.5)">
      <path id="path4418" d="m0 0h-17.716v25.764h17.716c7.31 0 12.882-4.829 12.882-13.009 0-7.678-5.572-12.755-12.882-12.755m3.347 43.846h-41.865v-84.224h20.802v22.294h21.063c16.723 0 31.081 11.52 31.081 30.718 0 21.426-14.358 31.212-31.081 31.212" fill="#036"/>
     </g>
     <g id="g4420" transform="translate(772.18 164.12)">
      <path id="path4422" d="m0 0h67.628v18.079h-47.806v16.11h38.76v17.462h-38.76v14.491h47.806v18.082h-67.628v-84.224z" fill="#036"/>
     </g>
     <g id="g4424" transform="translate(885.74 194.83)">
      <path id="path4426" d="m0 0 12.749 32.949 12.143-32.949h-24.892zm0.49 53.511-32.57-84.224h21.05l5.826 15.484h35.3l5.687-15.484h21.063l-31.954 84.224h-24.402z" fill="#036"/>
     </g>
     <g id="g4428" transform="translate(962.21 239.72)">
      <path id="path4430" d="m0 0h-1.357v2.092h1.272c0.547 0 0.921-0.04 1.123-0.12 0.202-0.079 0.36-0.201 0.474-0.363s0.171-0.345 0.171-0.55c0-0.319-0.119-0.575-0.355-0.769-0.236-0.193-0.679-0.29-1.328-0.29m1.478-1.17c-0.148 0.142-0.345 0.265-0.589 0.367 0.597 0.046 1.077 0.257 1.438 0.632 0.361 0.376 0.542 0.817 0.542 1.323 0 0.359-0.107 0.698-0.324 1.017-0.216 0.318-0.507 0.542-0.871 0.67s-0.953 0.192-1.768 0.192h-2.382v-6.933h1.119v2.945h0.658c0.392 0 0.691-0.079 0.896-0.239 0.296-0.216 0.686-0.754 1.169-1.614l0.615-1.092h1.367l-0.846 1.357c-0.404 0.644-0.745 1.102-1.024 1.375" fill="#036"/>
     </g>
     <g id="g4432" transform="translate(967.23 236.71)">
      <path id="path4434" d="m0 0c-0.473-0.851-1.136-1.514-1.989-1.989-0.855-0.476-1.745-0.713-2.673-0.713s-1.818 0.237-2.673 0.713c-0.853 0.475-1.519 1.138-1.993 1.989-0.476 0.851-0.714 1.741-0.714 2.668 0 0.934 0.242 1.832 0.727 2.694 0.483 0.863 1.154 1.526 2.01 1.99 0.857 0.464 1.738 0.696 2.643 0.696 0.899 0 1.779-0.232 2.639-0.696 0.859-0.464 1.529-1.127 2.01-1.99 0.481-0.862 0.722-1.76 0.722-2.694 0-0.927-0.236-1.817-0.709-2.668m0.914 5.9c-0.575 1.034-1.378 1.828-2.408 2.383s-2.087 0.832-3.168 0.832c-1.082 0-2.138-0.277-3.168-0.832s-1.834-1.349-2.412-2.383c-0.578-1.033-0.867-2.11-0.867-3.232 0-1.109 0.285-2.177 0.854-3.202 0.569-1.024 1.364-1.82 2.387-2.386 1.021-0.566 2.09-0.85 3.206-0.85s2.184 0.284 3.206 0.85 1.816 1.362 2.383 2.386c0.566 1.025 0.849 2.093 0.849 3.202 0 1.122-0.288 2.199-0.862 3.232" fill="#036"/>
     </g>
     <g id="g4436" transform="translate(217.59 63.892)">
      <path id="path4438" d="m0 0h-5.409v7.88h5.409c2.242 0 3.939-1.476 3.939-3.981 0-2.347-1.697-3.899-3.939-3.899m1.029 13.417h-12.816v-25.77h6.378v6.82h6.438c5.116 0 9.518 3.521 9.518 9.399 0 6.553-4.402 9.551-9.518 9.551" fill="#036"/>
     </g>
     <g id="g4440" transform="translate(244.8 57.149)">
      <path id="path4442" d="m0 0c-4.051 0-6.998 3.14-6.998 7.236 0 4.165 2.947 7.273 6.998 7.273 4.178 0 7.019-3.108 7.019-7.273 0-4.096-2.841-7.236-7.019-7.236m-0.028 20.535c-7.545 0-13.232-5.679-13.232-13.299 0-7.543 5.687-13.23 13.232-13.23 7.606 0 13.294 5.687 13.294 13.23 0 7.62-5.688 13.299-13.294 13.299" fill="#036"/>
     </g>
     <g id="g4444" transform="translate(275.8 65.408)">
      <path id="path4446" d="m0 0h-5.76v6.364h5.76c2.088 0 3.418-1.213 3.418-3.181 0-1.897-1.33-3.183-3.418-3.183m10.241-8.755c-2.393 0-4.668 2.273-6.974 4.396 3.894 0.798 6.74 3.717 6.74 7.768 0 6.029-4.882 8.492-9.893 8.492h-12.239v-25.769h6.365v9.279h1.373c3.371-2.306 7.691-9.664 13.603-9.664 1.739 0 3.294 0.457 4.359 0.99l-0.611 5.004c-0.793-0.342-1.895-0.496-2.723-0.496" fill="#036"/>
     </g>
     <g id="g4448" transform="translate(302.82 51.54)">
      <path id="path4450" d="m0 0h20.687v5.527h-14.622v4.931h11.856v5.344h-11.856v4.43h14.622v5.538h-20.687v-25.77z" fill="#036"/>
     </g>
     <g id="g4452" transform="translate(340.07 68.516)">
      <path id="path4454" d="m0 0-5.99 8.794h-7.276v-0.457l8.749-12.467-8.749-12.352v-0.494h7.349l5.917 8.677 5.915-8.677h7.309v0.494l-8.791 12.352 8.791 12.467v0.457h-7.243l-5.981-8.794z" fill="#036"/>
     </g>
     <g id="g4456" transform="translate(369.7 63.892)">
      <path id="path4458" d="m0 0h-5.412v7.88h5.412c2.242 0 3.948-1.476 3.948-3.981 0-2.347-1.706-3.899-3.948-3.899m1.026 13.417h-12.813v-25.77h6.375v6.82h6.438c5.116 0 9.509 3.521 9.509 9.399 0 6.553-4.393 9.551-9.509 9.551" fill="#036"/>
     </g>
     <g id="g4460" transform="translate(385.2 51.54)">
      <path id="path4462" d="m0 0h20.693v5.527h-14.624v4.931h11.859v5.344h-11.859v4.43h14.624v5.538h-20.693v-25.77z" fill="#036"/>
     </g>
     <g id="g4464" transform="translate(423.81 65.408)">
      <path id="path4466" d="m0 0h-5.76v6.364h5.76c2.088 0 3.41-1.213 3.41-3.181 0-1.897-1.322-3.183-3.41-3.183m10.232-8.755c-2.383 0-4.662 2.273-6.974 4.396 3.9 0.798 6.749 3.717 6.749 7.768 0 6.029-4.891 8.492-9.892 8.492h-12.24v-25.769h6.365v9.279h1.367c3.373-2.306 7.697-9.664 13.608-9.664 1.737 0 3.286 0.457 4.345 0.99l-0.596 5.004c-0.802-0.342-1.894-0.496-2.732-0.496" fill="#036"/>
     </g>
     <path id="path4468" d="m441.36 51.54h6.368v25.77h-6.368v-25.77z" fill="#036"/>
     <g id="g4470" transform="translate(454.82 51.54)">
      <path id="path4472" d="m0 0h20.686v5.527h-14.626v4.931h11.858v5.344h-11.858v4.43h14.626v5.538h-20.686v-25.77z" fill="#036"/>
     </g>
     <g id="g4474" transform="translate(499.8 61.659)">
      <path id="path4476" d="m0 0-12.966 15.65h-5.528v-25.769h6.369v15.643l12.99-15.643h5.501v25.769h-6.366v-15.65z" fill="#036"/>
     </g>
     <g id="g4478" transform="translate(525.3 57.034)">
      <path id="path4480" d="m0 0c-4.169 0-6.893 2.689-6.893 7.352 0 4.737 2.724 7.423 6.668 7.423 3.292 0 4.739-1.962 4.781-5.077l5.826 1.211c-0.139 6.027-3.855 9.741-10.534 9.741-7.618 0-13.338-4.924-13.338-13.298 0-8.298 5.72-13.231 13.338-13.231 4.278 0 8.259 1.977 10.577 4.173l-2.96 4.734c-1.82-1.664-4.477-3.028-7.465-3.028" fill="#036"/>
     </g>
     <path id="path4482" d="m541.14 51.54h6.364v25.77h-6.364v-25.77z" fill="#036"/>
     <g id="g4484" transform="translate(561.18 60.934)">
      <path id="path4486" d="m0 0 3.896 10.081 3.721-10.081h-7.617zm0.15 16.376-9.964-25.77h6.437l1.785 4.735h10.801l1.742-4.735h6.45l-9.784 25.77h-7.467z" fill="#036"/>
     </g>
     <g id="g4488" transform="translate(603.36 57.067)">
      <path id="path4490" d="m0 0h-4.932v14.705h4.932c4.169 0 7.013-2.613 7.013-7.387 0-4.702-2.844-7.318-7.013-7.318m0.266 20.242h-11.563v-25.769h11.563c7.618 0 13.305 4.548 13.305 12.845 0 8.374-5.687 12.888-13.305 12.924" fill="#036"/>
     </g>
     <g id="g4492" transform="translate(622.61 51.54)">
      <path id="path4494" d="m0 0h20.698v5.527h-14.636v4.931h11.866v5.344h-11.866v4.43h14.636v5.538h-20.698v-25.77z" fill="#036"/>
     </g>
     <g id="g4496" transform="translate(661.03 66.657)">
      <path id="path4498" d="m0 0-4.544 1.365c-1.592 0.456-2.348 0.91-2.348 2.044 0 1.253 1.167 2.127 3.794 2.127 2.687 0 5.796-0.988 7.763-2.241l1.815 5.654c-1.996 1.059-5.639 2.046-9.311 2.046-7.02 0-10.546-3.564-10.546-8.039 0-3.56 1.936-5.875 5.959-6.973l4.81-1.286c1.858-0.535 2.99-1.137 2.99-2.278 0-1.4-1.399-2.463-3.97-2.463-2.886 0-5.96 1.214-7.884 2.544l-1.482-5.763c1.67-0.946 5.415-2.239 9.245-2.239 6.45 0 10.606 3.413 10.606 8.378 0 3.561-2.16 5.724-6.897 7.124" fill="#036"/>
     </g>
     <g id="g4500" transform="translate(684.83 57.067)">
      <path id="path4502" d="m0 0h-4.924v14.705h4.924c4.169 0 7.007-2.613 7.007-7.387 0-4.702-2.838-7.318-7.007-7.318m0.26 20.242h-11.55v-25.769h11.55c7.624 0 13.311 4.548 13.311 12.845 0 8.374-5.687 12.888-13.311 12.924" fill="#036"/>
     </g>
     <g id="g4504" transform="translate(704.08 51.54)">
      <path id="path4506" d="m0 0h20.682v5.527h-14.619v4.931h11.859v5.344h-11.859v4.43h14.619v5.538h-20.682v-25.77z" fill="#036"/>
     </g>
     <g id="g4508" transform="translate(736.98 71.015)">
      <path id="path4510" d="m0 0 2.384-4.813 7.085 3.865v-18.527h6.365v25.77h-4.652l-11.182-6.295z" fill="#036"/>
     </g>
     <g id="g4512" transform="translate(768.99 65.182)">
      <path id="path4514" d="m0 0c-2.377 0-4.048 0.95-4.048 3.225 0 1.89 1.44 3.482 4.024 3.482 3.146 0 4.689-1.97 5.264-4.811-1.137-0.876-3.044-1.896-5.24-1.896m-0.024 12.503c-6.039 0-10.383-3.564-10.383-9.278 0-5.125 3.292-8.148 9.464-8.148 2.885 0 4.93 0.944 6.297 1.928-0.459-3.413-2.202-5.646-6.255-5.646-2.615 0-5.228 0.948-6.596 1.625l-1.706-5.189c1.403-0.647 5.004-1.821 9.088-1.821 7.782 0 11.98 5.346 11.98 13.23 0 7.995-4.198 13.299-11.889 13.299" fill="#036"/>
     </g>
     <g id="g4516" transform="translate(794.38 67.492)">
      <path id="path4518" d="m0 0h-1.856l0.338 4.28h11.484v5.537h-16.784l-1.253-14.215 0.26-0.267h7.43c2.894 0 4.659-0.829 4.659-2.873 0-2.315-2.147-3.413-5.113-3.413-2.994 0-5.717 0.914-7.042 1.479l-1.592-5.234c1.362-0.492 4.775-1.631 8.986-1.631 6.776 0 11.279 2.882 11.279 8.949 0 5.116-3.97 7.388-10.796 7.388" fill="#036"/>
     </g>
     <g id="g4520" transform="translate(824.63 64.993)">
      <path id="path4522" d="m0 0c2.583 0.72 4.054 2.95 4.054 5.452 0 4.704-3.565 7.239-10.602 7.239-3.261 0-7.054-0.871-8.687-1.472l1.439-5.386c1.137 0.457 4.362 1.479 7.278 1.479 2.421 0 4.133-0.794 4.133-2.501 0-1.516-1.246-2.501-3.751-2.501h-5.644v-5.154h5.644c2.995 0 4.551-0.722 4.551-2.541 0-1.893-1.937-3.067-4.963-3.067-2.886 0-5.765 0.872-7.054 1.4l-1.525-5.266c1.331-0.417 4.895-1.52 8.579-1.52 7.68 0 11.515 2.959 11.515 7.471 0 3.406-1.621 5.345-4.967 6.367" fill="#036"/>
     </g>
    </g>
   </g>
  </g>
 </g>
</svg>
